{"title":"30 Minutes Or Less 2011 R5 XviD READNFO - MiSTERE","uid":6771468,"size":1487415515,"categoryP":"video","categoryS":"movies","magnet":"?xt=urn:btih:acf72b8c3c40830e1bf0d563e96a312a4128b748&amp;dn=30+Minutes+Or+Less+2011+R5+XviD+READNFO+-+MiSTERE&amp;tr=udp%3A%2F%2Ftracker.openbittorrent.com%3A80&amp;tr=udp%3A%2F%2Fopen.demonii.com%3A1337&amp;tr=udp%3A%2F%2Ftracker.coppersurfer.tk%3A6969&amp;tr=udp%3A%2F%2Fexodus.desync.com%3A6969","seeders":1,"leechers":0,"uploader":"sceneline","files":103,"time":1319589237,"description":"- &lt;a href=&quot;\nhttp://www.Speed.Cd&quot; rel=&quot;nofollow&quot; target=&quot;_NEW&quot;&gt;\nhttp://www.Speed.Cd&lt;/a&gt;      fast  and The Hottest Private Tracker on the net\n\nPlease Seed back to make the speed Faster!!!\n\n------------------nfo--------------------------\n-\n30 Minutes Or Less 2011 R5 XviD READNFO - MiSTERE\n\nAudio: ILLUMINATI\nVideo: Uspet.za.30.minut.2011.D.DVD5 \n\nVideo\nID                               : 0\nFormat                           : MPEG-4 Visual\nFormat profile                   : Advanced Simple@L5\nFormat settings, BVOP            : 2\nFormat settings, QPel            : No\nFormat settings, GMC             : No warppoints\nFormat settings, Matrix          : Default (H.263)\nMuxing mode                      : Packed bitstream\nCodec ID                         : XVID\nCodec ID/Hint                    : XviD\nDuration                         : 1h 19mn\nBit rate                         : 2 323 Kbps\nWidth                            : 720 pixels\nHeight                           : 304 pixels\nDisplay aspect ratio             : 2.35:1\nFrame rate                       : 25.000 fps\nColor space                      : YUV\nChroma subsampling               : 4:2:0\nBit depth                        : 8 bits\nScan type                        : Progressive\nCompression mode                 : Lossy\nBits/(Pixel*Frame)               : 0.425\nStream size                      : 1.29 GiB (94%)\nWriting library                  : XviD 64\n\nAudio\nID                               : 1\nFormat                           : MPEG Audio\nFormat version                   : Version 1\nFormat profile                   : Layer 3\nMode                             : Joint stereo\nMode extension                   : MS Stereo\nCodec ID                         : 55\nCodec ID/Hint                    : MP3\nDuration                         : 1h 19mn\nBit rate mode                    : Constant\nBit rate                         : 128 Kbps\nChannel(s)                       : 2 channels\nSampling rate                    : 44.1 KHz\nCompression mode                 : Lossy\nStream size                      : 73.0 MiB (5%)\nAlignment                        : Split accross interleaves\nInterleave, duration             : 40 ms (1.00 video frame)\n \nNotes:\nCropped Resized and sharpened video \nthen adjusted the RGB abit\nAudio is FULL cam\nNOTHING missing or cut out\n &lt;a href=&quot;\nhttp://screenshotcomparison.com/comparison/89983/&quot; rel=&quot;nofollow&quot; target=&quot;_NEW&quot;&gt;\nhttp://screenshotcomparison.com/comparison/89983/&lt;/a&gt;\n\n[IMG]http://i.imgur.com/P2Qm5.png[/IMG]\n[IMG]http://i.imgur.com/rqiJ8.png[/IMG]\n[IMG]http://i.imgur.com/ElSn5.png[/IMG]\n[IMG]http://i.imgur.com/EH5l0.png[/IMG]\n[IMG]http://i.imgur.com/nCujc.png[/IMG]","torrent":{"xt":"urn:btih:acf72b8c3c40830e1bf0d563e96a312a4128b748","amp;dn":"30+Minutes+Or+Less+2011+R5+XviD+READNFO+-+MiSTERE","amp;tr":["udp%3A%2F%2Ftracker.openbittorrent.com%3A80","udp%3A%2F%2Fopen.demonii.com%3A1337","udp%3A%2F%2Ftracker.coppersurfer.tk%3A6969","udp%3A%2F%2Fexodus.desync.com%3A6969"],"infoHash":"acf72b8c3c40830e1bf0d563e96a312a4128b748","infoHashBuffer":{"type":"Buffer","data":[172,247,43,140,60,64,131,14,27,240,213,99,233,106,49,42,65,40,183,72]},"announce":[],"urlList":[]}}